
      <svg
        xmlns="http://www.w3.org/2000/svg"
        xmlns:xlink="http://www.w3.org/1999/xlink"
        width="500"
        height="500"
      >
        
          <defs>
            <linearGradient id="grad" x1="1" y1="1" x2="0" y2="0" gradientUnits="objectBoundingBox">
              <stop offset="0%" stop-color="#40E0D0" />
<stop offset="50%" stop-color="#FF8C00" />
<stop offset="100%" stop-color="#FF0080" />
            </linearGradient>
          </defs>
        
        
      <rect
        x="0"
        y="0"
        width="500"
        height="500"
        rx="100"
        fill="url(#grad)"
      />
    
        <g transform="translate(250, 250) rotate(0) translate(-200, -200)">
        >
          <svg xmlns="http://www.w3.org/2000/svg" width="400" height="400" viewBox="0 0 24 24" fill="#ffffff" stroke="#ffffff" stroke-width="1.8" stroke-linecap="round" stroke-linejoin="round" class="lucide lucide-flask-conical" data-slot="icon" fill-opacity="0"><path d="M14 2v6a2 2 0 0 0 .245.96l5.51 10.08A2 2 0 0 1 18 22H6a2 2 0 0 1-1.755-2.96l5.51-10.08A2 2 0 0 0 10 8V2"></path><path d="M6.453 15h11.094"></path><path d="M8.5 2h7"></path></svg>
        </g>
      </svg>
    